<?xml version="1.0" encoding="UTF-8"?>
<svg width="944px" height="241px" viewBox="0 0 944 241" version="1.1" xmlns="http://www.w3.org/2000/svg" xmlns:xlink="http://www.w3.org/1999/xlink">
    <!-- Generator: Sketch 47.1 (45422) - http://www.bohemiancoding.com/sketch -->
    <title>logo</title>
    <desc>Created with Sketch.</desc>
    <defs></defs>
    <g id="Page-1" stroke="none" stroke-width="1" fill="none" fill-rule="evenodd">
        <g id="logo" fill-rule="nonzero" fill="#989A9B">
            <g id="Icon">
                <path d="M192.1995,190.9837 L146.6235,83.6347 C141.7955,72.2627 131.3235,66.5767 120.8505,66.5767 C110.3775,66.5767 99.9055,72.2627 95.0765,83.6347 L49.5005,190.9837 C31.7825,172.9407 20.8505,148.2127 20.8505,120.9267 C20.8505,65.6987 65.6215,20.9267 120.8505,20.9267 C176.0785,20.9267 220.8505,65.6987 220.8505,120.9267 C220.8505,148.2127 209.9175,172.9407 192.1995,190.9837 L192.1995,190.9837 Z M86.3825,155.2927 L113.4865,91.4507 C115.2865,87.2097 118.8725,86.5767 120.8505,86.5767 C122.8275,86.5767 126.4135,87.2097 128.2145,91.4507 L155.3185,155.2927 L86.3825,155.2927 Z M205.7035,36.0737 C183.0385,13.4097 152.9035,0.9267 120.8505,0.9267 C88.7975,0.9267 58.6625,13.4097 35.9975,36.0737 C13.3325,58.7387 0.8505,88.8737 0.8505,120.9267 C0.8505,152.9797 13.3325,183.1147 35.9975,205.7797 C58.6625,228.4447 88.7975,240.9267 120.8505,240.9267 C152.9035,240.9267 183.0385,228.4447 205.7035,205.7797 C228.3685,183.1147 240.8505,152.9797 240.8505,120.9267 C240.8505,88.8737 228.3685,58.7387 205.7035,36.0737 L205.7035,36.0737 Z" id="Fill-1"></path>
            </g>
            <g id="text" transform="translate(300.000000, 76.000000)">
                <path d="M246.9863,87.8216 L246.0183,87.8216 C243.8803,87.8216 242.1473,86.0886 242.1473,83.9506 L242.1473,9.9196 L217.3493,9.9196 C215.2113,9.9196 213.4783,8.1866 213.4783,6.0486 C213.4783,3.9106 215.2113,2.1776 217.3493,2.1776 L276.0043,2.1776 C278.1423,2.1776 279.8753,3.9106 279.8753,6.0486 C279.8753,8.1866 278.1423,9.9196 276.0043,9.9196 L250.8573,9.9196 L250.8573,83.9506 C250.8573,86.0886 249.1243,87.8216 246.9863,87.8216" id="Fill-2"></path>
                <path d="M297.0124,2.1774 L297.0124,2.1774 C299.4174,2.1774 301.3674,4.1274 301.3674,6.5324 L301.3674,39.3134 L348.0604,39.3134 L348.0604,6.5324 C348.0604,4.1274 350.0104,2.1774 352.4154,2.1774 C354.8204,2.1774 356.7704,4.1274 356.7704,6.5324 L356.7704,83.4664 C356.7704,85.8714 354.8204,87.8214 352.4154,87.8214 C350.0104,87.8214 348.0604,85.8714 348.0604,83.4664 L348.0604,47.2974 L301.3674,47.2974 L301.3674,83.4664 C301.3674,85.8714 299.4174,87.8214 297.0124,87.8214 C294.6074,87.8214 292.6574,85.8714 292.6574,83.4664 L292.6574,6.5324 C292.6574,4.1274 294.6074,2.1774 297.0124,2.1774" id="Fill-4"></path>
                <path d="M384.1752,87.8216 L384.1752,87.8216 C381.7702,87.8216 379.8202,85.8716 379.8202,83.4666 L379.8202,6.5326 C379.8202,4.1276 381.7702,2.1776 384.1752,2.1776 C386.5802,2.1776 388.5302,4.1276 388.5302,6.5326 L388.5302,83.4666 C388.5302,85.8716 386.5802,87.8216 384.1752,87.8216" id="Fill-6"></path>
                <path d="M570.0995,15.0158 C568.6825,16.4328 566.4225,16.5308 564.8865,15.2438 C562.4925,13.2368 559.8015,11.6038 556.8105,10.3418 C552.6975,8.6088 547.9795,7.7418 542.6575,7.7418 C537.1725,7.7418 532.2325,8.7488 527.8385,10.7608 C523.4425,12.7758 519.7135,15.4928 516.6485,18.9138 C513.5835,22.3348 511.2245,26.2998 509.5725,30.8078 C507.9195,35.3178 507.0925,40.0678 507.0925,45.0598 C507.0925,50.0538 507.9195,54.8038 509.5725,59.3108 C511.2245,63.8218 513.5835,67.7658 516.6485,71.1468 C519.7135,74.5288 523.4425,77.2248 527.8385,79.2388 C532.2325,81.2518 537.1725,82.2578 542.6575,82.2578 C547.4955,82.2578 551.9295,81.7328 555.9635,80.6848 C558.9105,79.9198 561.4485,79.0018 563.5775,77.9328 C564.9055,77.2668 565.7615,75.9308 565.7615,74.4448 L565.7615,50.6858 L548.8195,50.6858 C546.6815,50.6858 544.9485,48.9518 544.9485,46.8148 C544.9485,44.6768 546.6815,42.9428 548.8195,42.9428 L570.6005,42.9428 C572.7385,42.9428 574.4715,44.6768 574.4715,46.8148 L574.4715,79.3908 C574.4715,80.8228 573.6745,82.1258 572.4185,82.8138 C568.3275,85.0538 563.9705,86.7618 559.3505,87.9368 C553.9465,89.3118 548.3425,89.9998 542.5365,89.9998 C536.0835,89.9998 530.1155,88.8688 524.6335,86.6118 C519.1485,84.3548 514.4305,81.2278 510.4795,77.2368 C506.5275,73.2458 503.4435,68.5088 501.2265,63.0228 C499.0065,57.5398 497.8995,51.5318 497.8995,44.9988 C497.8995,38.4678 499.0275,32.4608 501.2865,26.9748 C503.5435,21.4918 506.6695,16.7538 510.6615,12.7618 C514.6535,8.7698 519.3715,5.6448 524.8145,3.3868 C530.2575,1.1308 536.1645,-0.0002 542.5365,-0.0002 C549.3895,-0.0002 555.3585,1.0238 560.4385,3.0728 C564.0955,4.5468 567.3755,6.4348 570.2795,8.7348 C572.0925,10.1718 572.2395,12.8758 570.6035,14.5118 L570.0995,15.0158 Z" id="Fill-8"></path>
                <path d="M472.3058,75.1196 L472.5468,75.1196 L472.5468,6.5326 C472.5468,4.1276 474.4968,2.1776 476.9018,2.1776 L476.9028,2.1776 C479.3078,2.1776 481.2568,4.1276 481.2568,6.5326 L481.2568,83.4666 C481.2568,85.8716 479.3078,87.8216 476.9028,87.8216 L474.2348,87.8216 C471.8178,87.8216 469.5588,86.6226 468.2048,84.6206 L420.5318,14.1536 L420.2898,14.1536 L420.2898,83.4666 C420.2898,85.8716 418.3398,87.8216 415.9348,87.8216 C413.5298,87.8216 411.5798,85.8716 411.5798,83.4666 L411.5798,6.5326 C411.5798,4.1276 413.5298,2.1776 415.9348,2.1776 L418.6248,2.1776 C421.0298,2.1776 423.2788,3.3656 424.6358,5.3506 L472.3058,75.1196 Z" id="Fill-11"></path>
                <path d="M638.9407,13.3657 C637.2737,14.7117 634.8427,14.6617 633.3017,13.1727 C631.9227,11.8407 630.3487,10.6957 628.5807,9.7377 C625.6767,8.1647 622.1687,7.3777 618.0557,7.3777 C615.9577,7.3777 613.8217,7.7017 611.6447,8.3467 C609.4677,8.9917 607.4897,9.9787 605.7177,11.3107 C603.9427,12.6407 602.5117,14.3157 601.4227,16.3297 C600.3347,18.3467 599.7897,20.7267 599.7897,23.4677 C599.7897,26.2097 600.3117,28.4677 601.3567,30.2407 C602.4027,32.0157 603.7897,33.5277 605.5187,34.7777 C607.2477,36.0277 609.2197,37.0577 611.4317,37.8617 C613.6427,38.6697 615.9547,39.4757 618.3677,40.2807 C621.3427,41.2497 624.3367,42.2977 627.3537,43.4257 C630.3697,44.5567 633.0837,46.0277 635.4977,47.8407 C637.9097,49.6557 639.8807,51.9547 641.4077,54.7367 C642.9357,57.5187 643.7007,61.0487 643.7007,65.3217 C643.7007,69.5967 642.8847,73.2867 641.2547,76.3907 C639.6237,79.4957 637.5067,82.0567 634.9037,84.0707 C632.2997,86.0877 629.3247,87.5787 625.9797,88.5477 C622.6317,89.5147 619.2657,89.9997 615.8787,89.9997 C613.2967,89.9997 610.7167,89.7367 608.1367,89.2127 C605.5547,88.6867 603.0957,87.9007 600.7577,86.8537 C598.4177,85.8067 596.2407,84.4757 594.2257,82.8617 C593.5417,82.3147 592.8857,81.7407 592.2577,81.1387 C590.3157,79.2757 590.4867,76.1227 592.6467,74.5197 L592.9487,74.2957 C594.7287,72.9757 597.2357,73.2007 598.7057,74.8587 C600.2347,76.5827 602.0677,78.1007 604.2057,79.4147 C607.5507,81.4707 611.4827,82.4997 615.9997,82.4997 C618.1767,82.4997 620.3937,82.1567 622.6527,81.4707 C624.9097,80.7867 626.9467,79.7367 628.7607,78.3247 C630.5757,76.9147 632.0677,75.1797 633.2367,73.1247 C634.4047,71.0677 634.9907,68.6697 634.9907,65.9257 C634.9907,62.9447 634.4047,60.4637 633.2367,58.4867 C632.0677,56.5117 630.5157,54.8577 628.5807,53.5277 C626.6447,52.1977 624.4257,51.0887 621.9267,50.2007 C619.4257,49.3147 616.8047,48.4277 614.0637,47.5397 C611.2397,46.6527 608.4577,45.6457 605.7177,44.5157 C602.9747,43.3857 600.5157,41.9137 598.3387,40.1007 C596.1607,38.2857 594.4067,36.0467 593.0757,33.3867 C591.7457,30.7257 591.0807,27.4587 591.0807,23.5877 C591.0807,19.4747 591.9067,15.9277 593.5607,12.9437 C595.2117,9.9607 597.3707,7.4997 600.0317,5.5637 C602.6937,3.6287 605.6357,2.2187 608.8627,1.3297 C612.0867,0.4437 615.2737,-0.0003 618.4187,-0.0003 C624.2247,-0.0003 629.1847,1.0267 633.2977,3.0837 C635.4407,4.1557 637.3097,5.3317 638.9047,6.6107 C641.0687,8.3457 641.0987,11.6237 638.9407,13.3657" id="Fill-13"></path>
                <path d="M158.879,37.834 L158.879,16.665 L172.869,16.665 C181.355,16.665 187.508,26.649 180.222,35.51 C178.982,37.018 177.086,37.834 175.134,37.834 L158.879,37.834 L158.879,37.834 Z M187.933,51.74 C201.264,46.013 208.806,29.391 199.344,13.082 C195.849,7.058 187.2,2.178 180.236,2.178 L138.845,2.178 L138.845,87.821 L159.047,87.821 L159.047,53.829 L166.071,53.829 L181.466,82.36 C183.282,85.724 186.796,87.821 190.619,87.821 L207.467,87.821 L187.933,51.74 L187.933,51.74 Z" id="Fill-16"></path>
                <path d="M27.7341322,69.8249 L20.7435,87.8216 L0.0005,87.8216 L31.6575,11.1606 C33.9025,5.7246 39.2045,2.1776 45.0865,2.1776 C50.9685,2.1776 56.2695,5.7246 58.5145,11.1606 L90.1715,87.8216 L70.4295,87.8216 L63.2984639,69.8249 L27.7341322,69.8249 Z M33.9472248,53.8299 L56.9605841,53.8299 L45.3395,24.5016 L33.9472248,53.8299 Z" id="Combined-Shape"></path>
                <polygon id="Fill-1" points="99.186 87.822 119.22 87.822 119.22 2.178 99.186 2.178"></polygon>
            </g>
        </g>
    </g>
</svg>